<svg width="26" height="35" viewBox="0 0 26 35" fill="none" xmlns="http://www.w3.org/2000/svg">
<path d="M9.11719 1.23242C9.68331 1.52353 10.5461 2.07272 11.4922 2.81543C12.6817 3.74931 13.8938 4.90183 14.7051 6.04688C15.9186 7.75978 16.7437 9.44205 17.2646 10.6963C17.5246 11.322 17.7072 11.8382 17.8242 12.1943C17.8827 12.3723 17.9254 12.5105 17.9521 12.6016C17.9655 12.6469 17.9745 12.6808 17.9805 12.7021C17.9834 12.7127 17.9851 12.7202 17.9863 12.7246L17.9873 12.7266V12.7275L18.4912 14.6436L19.7334 13.1016L19.7363 13.0986C19.7372 13.0976 19.7381 13.0962 19.7393 13.0947C19.7419 13.0914 19.7458 13.0864 19.75 13.0811C19.7583 13.0705 19.7695 13.056 19.7832 13.0381C19.8109 13.002 19.8495 12.951 19.8955 12.8877C19.9872 12.7615 20.111 12.5825 20.2451 12.3672C20.5063 11.9478 20.838 11.338 21.0186 10.6768C21.0361 10.6125 21.0488 10.5451 21.0654 10.4785C21.9693 11.6892 23.1139 13.5487 23.79 15.3057C24.4954 17.1389 24.754 18.9529 24.833 20.3184C24.8723 20.9985 24.8665 21.5603 24.8516 21.9482C24.8441 22.1419 24.8348 22.2917 24.8271 22.3906C24.8233 22.4401 24.8196 22.477 24.8174 22.5C24.8163 22.5114 24.8159 22.5199 24.8154 22.5244C24.8153 22.5258 24.8145 22.5267 24.8145 22.5273L24.8115 22.5615L24.8096 22.5957C24.544 28.9385 19.3191 34 12.9111 34C6.34248 33.9999 1.00001 28.4827 1 22.0889C1 21.2484 0.972108 19.546 2.28711 16.5889C2.93321 15.1359 3.41643 14.0483 3.74902 13.083C3.80607 13.2695 3.85043 13.4676 3.88184 13.6602C3.91185 13.8442 3.92804 14.0052 3.93652 14.1182C3.94073 14.1742 3.94218 14.2177 3.94336 14.2451C3.94394 14.2586 3.94418 14.2682 3.94434 14.2734C3.94441 14.2761 3.94531 14.278 3.94531 14.2783L3.97656 16.2637L5.55371 15.0527L5.55469 15.0518H5.55566C5.55652 15.0511 5.5575 15.0497 5.55859 15.0488C5.56072 15.0472 5.5634 15.0453 5.56641 15.043C5.57266 15.0381 5.58094 15.0313 5.59082 15.0234C5.61069 15.0076 5.63834 14.9859 5.67188 14.958C5.73891 14.9022 5.83228 14.8224 5.94629 14.7188C6.17424 14.5114 6.48613 14.2074 6.84082 13.8096C7.54934 13.0148 8.43505 11.8336 9.14941 10.2822C10.2057 7.98826 10.3316 6.10082 10.0908 4.52832C9.97241 3.7551 9.76815 3.07898 9.56836 2.5C9.38157 1.95871 9.23622 1.59442 9.11719 1.23242Z" stroke="white" stroke-width="2"/>
<path d="M12.1836 14.71C12.7368 15.5209 13.5447 16.851 14.0635 17.9746C14.3062 18.5006 14.5025 19.0265 14.6592 19.5176C14.9345 20.3802 15.587 21.0871 16.4082 21.3223C16.8312 21.4434 17.3132 21.4386 17.7676 21.2246C18.2242 21.0094 18.5586 20.6278 18.7676 20.165C18.7911 20.1129 18.8126 20.0601 18.8301 20.0156C18.8478 19.9706 18.8663 19.9211 18.8828 19.8779C18.8886 19.8627 18.8947 19.8478 18.9004 19.833L18.9014 19.834C19.7315 21.0649 20.8558 23.2576 20.8398 26.0664V26.0723C20.8396 30.4507 17.2895 34 12.9111 34C8.5328 33.9998 4.98361 30.4506 4.9834 26.0723C4.9834 24.7357 5.24887 23.706 5.77441 22.7354C6.24644 21.8636 6.94686 21.0042 7.93652 19.9961L8.68457 19.248C10.1246 17.7836 11.479 16.047 12.1836 14.71Z" stroke="white" stroke-width="2"/>
</svg>
